<svg width="512" height="512" viewBox="0 0 512 512" fill="none" xmlns="http://www.w3.org/2000/svg">
  <rect width="512" height="512" rx="128" fill="#05070A"/>
  <rect x="28" y="28" width="456" height="456" rx="112" fill="url(#panel)" stroke="rgba(255,255,255,0.08)"/>
  <circle cx="256" cy="214" r="120" fill="url(#ballGlow)"/>
  <circle cx="256" cy="214" r="118" stroke="url(#ring)" stroke-width="8"/>
  <path d="M255.711 126L334.5 296.233H294.849L278.809 257.943H208.272L191.874 296.233H152L231.004 126H255.711ZM243.54 171.617L223.02 221.478H264.273L243.54 171.617Z" fill="url(#aFill)"/>
  <path d="M146 296.995C217.797 282.839 267.153 273.942 361 263L360.477 276.36C273.944 300.432 223.521 318.177 131 360L146 296.995Z" fill="url(#slash)"/>
  <text x="95" y="400" fill="#F7FAFC" font-size="86" font-family="Avenir Next, Montserrat, sans-serif" font-weight="500" letter-spacing="14">AIRO</text>
  <text x="118" y="444" fill="#2EEA7A" font-size="28" font-family="Avenir Next, Montserrat, sans-serif" font-weight="500" letter-spacing="6">SEE FOOTBALL SMARTER</text>
  <defs>
    <linearGradient id="panel" x1="256" y1="28" x2="256" y2="484" gradientUnits="userSpaceOnUse">
      <stop stop-color="#0B1118"/>
      <stop offset="1" stop-color="#060B11"/>
    </linearGradient>
    <radialGradient id="ballGlow" cx="0" cy="0" r="1" gradientUnits="userSpaceOnUse" gradientTransform="translate(256 214) rotate(90) scale(128)">
      <stop stop-color="#0B151B"/>
      <stop offset="0.7" stop-color="#071015"/>
      <stop offset="1" stop-color="#05070A"/>
    </radialGradient>
    <linearGradient id="ring" x1="136" y1="214" x2="376" y2="214" gradientUnits="userSpaceOnUse">
      <stop stop-color="#2EEA7A"/>
      <stop offset="1" stop-color="#00D9FF"/>
    </linearGradient>
    <linearGradient id="aFill" x1="243" y1="126" x2="243" y2="296" gradientUnits="userSpaceOnUse">
      <stop stop-color="#57FFAA"/>
      <stop offset="1" stop-color="#15C86B"/>
    </linearGradient>
    <linearGradient id="slash" x1="131" y1="263" x2="361" y2="360" gradientUnits="userSpaceOnUse">
      <stop stop-color="#21E777"/>
      <stop offset="1" stop-color="#0AAE61"/>
    </linearGradient>
  </defs>
</svg>
