<svg width="512" height="512" viewBox="0 0 512 512" fill="none" xmlns="http://www.w3.org/2000/svg">
  <rect width="512" height="512" rx="112" fill="#090C11"/>
  <rect x="18" y="18" width="476" height="476" rx="96" fill="url(#bg)" stroke="rgba(255,255,255,0.06)"/>
  <rect x="20" y="20" width="432" height="432" rx="106" fill="#10161F" stroke="rgba(255,255,255,0.05)"/>
  <circle cx="230" cy="230" r="212" stroke="#183245" stroke-width="5" opacity="0.54"/>
  <path d="M74 86H374L210 234H380L262 382H44L178 231H74V86Z" fill="url(#zFill)"/>
  <path d="M338 54C396 80 438 119 465 180" stroke="#FF545D" stroke-width="19" stroke-linecap="round"/>
  <path d="M385 90L429 52" stroke="#FF545D" stroke-width="14" stroke-linecap="round"/>
  <circle cx="450" cy="234" r="42" fill="#10161F" stroke="#FF545D" stroke-width="13"/>
  <circle cx="450" cy="234" r="15" fill="#FF545D"/>
  <path d="M234 372L397 210" stroke="url(#flare)" stroke-width="22" stroke-linecap="round"/>
  <defs>
    <linearGradient id="bg" x1="60" y1="44" x2="446" y2="454" gradientUnits="userSpaceOnUse">
      <stop stop-color="#131A24"/>
      <stop offset="1" stop-color="#0B1017"/>
    </linearGradient>
    <linearGradient id="zFill" x1="103" y1="138" x2="309" y2="291" gradientUnits="userSpaceOnUse">
      <stop stop-color="#FF6469"/>
      <stop offset="1" stop-color="#BE1E31"/>
    </linearGradient>
    <linearGradient id="flare" x1="220" y1="286" x2="330" y2="176" gradientUnits="userSpaceOnUse">
      <stop stop-color="#FF6469"/>
      <stop offset="0.52" stop-color="#C98FE7"/>
      <stop offset="1" stop-color="#48C9FF"/>
    </linearGradient>
  </defs>
</svg>
