<svg width="960" height="240" viewBox="0 0 960 240" fill="none" xmlns="http://www.w3.org/2000/svg">
  <g transform="translate(0 0)">
    <rect x="8" y="8" width="206" height="206" rx="48" fill="#10161F" stroke="rgba(255,255,255,0.06)"/>
    <circle cx="111" cy="111" r="86" stroke="#183245" stroke-width="3" opacity="0.48"/>
    <path d="M56 52H163L95 105H165L115 160H38L107 106H56V52Z" fill="url(#zFill)"/>
    <path d="M152 41C174 51 191 66 202 85" stroke="#FF545D" stroke-width="9" stroke-linecap="round"/>
    <path d="M171 54L188 40" stroke="#FF545D" stroke-width="7" stroke-linecap="round"/>
    <circle cx="198" cy="111" r="20" fill="#10161F" stroke="#FF545D" stroke-width="7"/>
    <circle cx="198" cy="111" r="7" fill="#FF545D"/>
    <path d="M103 154L170 88" stroke="url(#flare)" stroke-width="10" stroke-linecap="round"/>
  </g>
  <g transform="translate(272 44)">
    <text x="0" y="74" fill="#F5F7FA" font-size="108" font-family="Avenir Next, Montserrat, sans-serif" font-weight="800" letter-spacing="-3">ZBet</text>
    <text x="2" y="132" fill="#B7C0CB" font-size="34" font-family="Avenir Next, Montserrat, sans-serif" letter-spacing="7">SMARTER FOOTBALL PICKS</text>
    <rect x="0" y="168" width="286" height="7" rx="3.5" fill="url(#line)"/>
  </g>
  <defs>
    <linearGradient id="zFill" x1="38" y1="54" x2="162" y2="166" gradientUnits="userSpaceOnUse">
      <stop stop-color="#FF6469"/>
      <stop offset="1" stop-color="#BE1E31"/>
    </linearGradient>
    <linearGradient id="flare" x1="106" y1="159" x2="174" y2="91" gradientUnits="userSpaceOnUse">
      <stop stop-color="#FF6469"/>
      <stop offset="0.52" stop-color="#C98FE7"/>
      <stop offset="1" stop-color="#48C9FF"/>
    </linearGradient>
    <linearGradient id="line" x1="0" y1="171.5" x2="286" y2="171.5" gradientUnits="userSpaceOnUse">
      <stop stop-color="#FF6469"/>
      <stop offset="0.52" stop-color="#C98FE7"/>
      <stop offset="1" stop-color="#48C9FF"/>
    </linearGradient>
  </defs>
</svg>
